<svg width="118" height="118" viewBox="0 0 118 118" fill="none" xmlns="http://www.w3.org/2000/svg">
<g clip-path="url(#clip0)">
<path d="M49.4544 57.9763C52.2846 60.3651 55.2113 62.8352 58.3212 65.5306C58.9709 66.0936 59.778 66.3752 60.5854 66.3752C61.3925 66.3752 62.1998 66.0936 62.8495 65.5306C65.959 62.8357 68.8852 60.3658 71.7154 57.9774C76.6341 53.8257 80.8818 50.2406 84.5679 46.7628C91.7247 40.0105 98.347 32.3463 98.347 22.0764C98.347 16.2388 96.3431 10.7719 92.7044 6.68244C88.8701 2.37314 83.5548 0 77.7378 0C71.245 0 65.6167 3.07007 61.4616 8.87812C61.15 9.31347 60.8585 9.74906 60.5854 10.18C60.3125 9.74883 60.021 9.31347 59.7094 8.87812C55.5542 3.07007 49.926 0 43.4332 0C37.6162 0 32.3009 2.37314 28.4668 6.68221C24.8281 10.7716 22.8242 16.2386 22.8242 22.0761C22.8242 28.4198 25.2859 34.2735 30.5705 40.4984C35.1817 45.9294 41.7959 51.5121 49.4544 57.9763Z" fill="#FF3F2E"/>
<path d="M115.934 86.1951L99.3396 108.32C94.7766 114.404 87.5857 118 79.9802 118H49.1435C38.3576 118 27.7793 115.787 17.823 111.57L17.0625 90.2743C21.6947 68.08 44.6496 62.549 57.9244 74.2337C59.3766 75.4089 61.0357 76.1699 62.6951 76.3771C63.1791 76.5156 63.5939 76.5156 64.0088 76.5156H76.5232C77.7677 76.5156 78.9429 76.8613 79.9802 77.4836C81.9851 78.5896 83.3681 80.8021 83.4373 83.3603V83.4294C83.4373 85.9876 82.0545 88.2001 79.9802 89.3755C78.9429 89.998 77.7677 90.3435 76.5232 90.3435H55.4353C53.4991 90.3435 51.9783 91.8644 51.9783 93.8005C51.9783 95.7362 53.4991 97.2575 55.4353 97.2575H82.2619C85.7189 97.2575 88.208 95.8054 90.3511 93.3857L106.046 75.2708C108.535 72.5744 112.822 72.3667 115.38 74.5792C116.002 75.0632 116.555 75.6165 116.97 76.3077C118.561 78.659 118.353 83.0148 115.934 86.1951Z" fill="#F2D1A5"/>
<path d="M28.125 79.9727C28.125 74.2538 23.4728 69.6016 17.7539 69.6016H3.46484C1.55403 69.6016 0.0078125 71.1478 0.0078125 73.0586V114.543C0.0078125 116.454 1.55403 118 3.46484 118H17.7539C23.4728 118 28.125 113.348 28.125 107.629V79.9727Z" fill="#1EA1E3"/>
<path d="M60.5854 90.3436H76.5233C77.7678 90.3436 78.943 89.9979 79.9803 89.3756C82.0546 88.2005 83.4374 85.9878 83.4374 83.4295V83.3604C83.3682 80.8022 81.9852 78.5897 79.9803 77.4837C78.943 76.8612 77.7678 76.5157 76.5233 76.5157H64.0088C63.594 76.5157 63.1791 76.5157 62.6952 76.3772C61.9862 76.2887 61.2782 76.0935 60.5854 75.8135V90.3436Z" fill="#F2BB88"/>
<path d="M99.3397 108.32L115.934 86.1952C118.353 83.015 118.561 78.6591 116.971 76.3081C116.556 75.6169 116.003 75.0636 115.381 74.5796C112.822 72.3671 108.536 72.5747 106.047 75.2712L90.3516 93.3861C88.2083 95.8058 85.7192 97.2579 82.2622 97.2579H60.5854V118H79.9803C87.5858 118 94.7766 114.405 99.3397 108.32Z" fill="#F2BB88"/>
<path d="M62.8496 65.5303C65.9591 62.8355 68.8853 60.3655 71.7155 57.9772C76.6341 53.8255 80.8819 50.2403 84.568 46.7626C91.7248 40.0103 98.3471 32.3461 98.3471 22.0761C98.3471 16.2386 96.3431 10.7716 92.7045 6.68221C88.8702 2.37314 83.5549 0 77.7379 0C71.2451 0 65.6168 3.07007 61.4617 8.87812C61.1501 9.31347 60.8586 9.74906 60.5854 10.18V66.375C61.3926 66.375 62.1999 66.0934 62.8496 65.5303Z" fill="#CF0404"/>
</g>
<defs>
<clipPath id="clip0">
<rect width="118" height="118" fill="white"/>
</clipPath>
</defs>
</svg>
