<?xml version="1.0" encoding="UTF-8" standalone="no"?>
<svg
   xmlns:dc="http://purl.org/dc/elements/1.1/"
   xmlns:cc="http://creativecommons.org/ns#"
   xmlns:rdf="http://www.w3.org/1999/02/22-rdf-syntax-ns#"
   xmlns:svg="http://www.w3.org/2000/svg"
   xmlns="http://www.w3.org/2000/svg"
   xmlns:sodipodi="http://sodipodi.sourceforge.net/DTD/sodipodi-0.dtd"
   xmlns:inkscape="http://www.inkscape.org/namespaces/inkscape"
   width="30"
   height="30"
   viewBox="0 0 30 30"
   fill="none"
   version="1.1"
   id="svg8"
   sodipodi:docname="gbr.svg"
   inkscape:version="1.0.1 (0767f8302a, 2020-10-17)">
  <metadata
     id="metadata14">
    <rdf:RDF>
      <cc:Work
         rdf:about="">
        <dc:format>image/svg+xml</dc:format>
        <dc:type
           rdf:resource="http://purl.org/dc/dcmitype/StillImage" />
        <dc:title></dc:title>
      </cc:Work>
    </rdf:RDF>
  </metadata>
  <defs
     id="defs12" />
  <sodipodi:namedview
     pagecolor="#ffffff"
     bordercolor="#666666"
     borderopacity="1"
     objecttolerance="10"
     gridtolerance="10"
     guidetolerance="10"
     inkscape:pageopacity="0"
     inkscape:pageshadow="2"
     inkscape:window-width="1631"
     inkscape:window-height="995"
     id="namedview10"
     showgrid="false"
     inkscape:zoom="5.6568543"
     inkscape:cx="32.438179"
     inkscape:cy="19.926938"
     inkscape:window-x="49"
     inkscape:window-y="27"
     inkscape:window-maximized="1"
     inkscape:current-layer="svg8" />
  <path
     id="path853"
     style="fill:#dd1635;fill-opacity:1;stroke:#0994dd;stroke-width:0;stroke-miterlimit:4;stroke-dasharray:none"
     d="m 26.912913,5.9991954 -7.350281,5.0326196 2.674969,0.02359 5.585272,-3.7331807 a 15.061409,15.09786 0 0 0 -0.90996,-1.323031 z" />
  <path
     id="path853-1"
     style="fill:#152e84;fill-opacity:1;stroke:#0994dd;stroke-width:0;stroke-miterlimit:4;stroke-dasharray:none"
     d="M 10.396319,0.8261849 A 14.998004,15.034301 0 0 0 4.0534122,4.8666523 l 6.3038498,4.3713015 z" />
  <path
     id="path853-2"
     style="fill:#dd1635;fill-opacity:1;stroke:#0994dd;stroke-width:0;stroke-miterlimit:4;stroke-dasharray:none"
     d="M 14.908207,0.04569002 A 14.888814,14.999946 0 0 0 12.238689,0.31131348 V 29.779957 a 14.888814,14.999946 0 0 0 2.78196,0.265625 14.888814,14.999946 0 0 0 2.710229,-0.251953 V 0.29568816 a 14.888814,14.999946 0 0 0 -2.710229,-0.24999814 14.888814,14.999946 0 0 0 -0.112442,0 z" />
  <path
     id="path853-7"
     style="fill:#152e84;fill-opacity:1;stroke:#0994dd;stroke-width:0;stroke-miterlimit:4;stroke-dasharray:none"
     d="M 19.472724,0.74655587 19.550364,9.5189399 26.151591,5.026984 A 15.288728,15.325729 0 0 0 19.472726,0.74655587 Z" />
  <path
     id="path853-0"
     style="fill:#e01032;fill-opacity:1;stroke:#0994dd;stroke-width:0;stroke-miterlimit:4;stroke-dasharray:none"
     d="M 2.6580229,6.6402942 A 14.888814,14.924847 0 0 0 1.8399133,7.9850846 l 4.5422515,3.0374384 2.6443158,-0.02137 z" />
  <path
     id="path853-9"
     style="fill:#e01032;fill-opacity:1;stroke:#0994dd;stroke-width:0;stroke-miterlimit:4;stroke-dasharray:none"
     d="m 0.20540022,12.796771 a 14.999997,14.924847 0 0 0 -0.17968704,2.312574 14.999997,14.924847 0 0 0 0.34765598,3.19485 H 29.676099 a 14.999997,14.924847 0 0 0 0.34961,-3.19485 14.999997,14.924847 0 0 0 -0.181641,-2.312574 z" />
  <path
     id="path853-3"
     style="fill:#152e84;fill-opacity:1;stroke:#0994dd;stroke-width:0;stroke-miterlimit:4;stroke-dasharray:none"
     d="M 1.3012472,9.1302909 A 14.888814,14.924847 0 0 0 0.6110891,11.056139 l 3.4507923,-0.01555 z" />
  <path
     id="path853-6"
     style="fill:#152e84;fill-opacity:1;stroke:#0994dd;stroke-width:0;stroke-miterlimit:4;stroke-dasharray:none"
     d="M 0.89559984,20.115223 A 14.888814,14.924847 0 0 0 1.6303469,21.831192 L 4.0885527,20.13077 Z" />
  <path
     id="path853-06"
     style="fill:#ff0000;fill-opacity:0;stroke:#0994dd;stroke-width:0;stroke-miterlimit:4;stroke-dasharray:none"
     d="m 7.5060756,20.564295 -4.7031598,3.144322 a 14.888814,14.924847 0 0 0 0.9712628,1.245682 l 6.3762124,-4.366684 z" />
  <path
     id="path853-26"
     style="fill:#152e84;fill-opacity:1;stroke:#0994dd;stroke-width:0;stroke-miterlimit:4;stroke-dasharray:none"
     d="m 10.438874,21.834475 -5.7616625,3.997449 a 14.888814,14.924847 0 0 0 5.7965575,3.490237 z" />
  <path
     id="path853-18"
     style="fill:#152e84;fill-opacity:1;stroke:#0994dd;stroke-width:0;stroke-miterlimit:4;stroke-dasharray:none"
     d="m 19.641589,21.68645 -0.06785,7.664531 a 14.888814,14.924847 0 0 0 5.982666,-3.639875 z" />
  <path
     id="path853-20"
     style="fill:#e01032;fill-opacity:1;stroke:#0994dd;stroke-width:0;stroke-miterlimit:4;stroke-dasharray:none"
     d="m 24.415108,20.159372 -2.644316,0.02137 5.401072,3.698175 a 14.888814,14.924847 0 0 0 0.84719,-1.311753 z" />
  <path
     id="path853-75"
     style="fill:#152e84;fill-opacity:1;stroke:#0994dd;stroke-width:0;stroke-miterlimit:4;stroke-dasharray:none"
     d="m 29.097099,20.133501 -2.863383,0.0136 2.215875,1.531351 a 14.888814,14.924847 0 0 0 0.647508,-1.544954 z" />
  <path
     id="path853-92"
     style="fill:#152e84;fill-opacity:1;stroke:#0994dd;stroke-width:0;stroke-miterlimit:4;stroke-dasharray:none"
     d="m 28.82126,9.223403 -2.55126,1.764551 3.179382,0.0136 A 14.888814,14.924847 0 0 0 28.82126,9.223403 Z" />
  <path
     id="path853-28"
     style="fill:#dd1635;fill-opacity:1;stroke:#0994dd;stroke-width:0;stroke-miterlimit:4;stroke-dasharray:none"
     d="m 3.7764659,25.024548 6.4045791,-4.536053 -2.4157288,-0.02131 -4.9624004,3.241434 c 0.2215933,0.424273 0.6161132,0.949255 0.9735501,1.315931 z"
     sodipodi:nodetypes="cccccc" />
</svg>
