<svg width="50" height="50" viewBox="0 0 50 50" fill="none" xmlns="http://www.w3.org/2000/svg">
<path d="M35.4763 0H14.5237C6.50248 0 0 6.50248 0 14.5237V35.4763C0 43.4975 6.50248 50 14.5237 50H35.4763C43.4975 50 50 43.4975 50 35.4763V14.5237C50 6.50248 43.4975 0 35.4763 0Z" fill="url(#paint0_radial)"/>
<path d="M30.4679 39.1008H19.5321C17.2434 39.0979 15.0493 38.1874 13.4309 36.5691C11.8125 34.9507 10.9021 32.7566 10.8992 30.4679V19.5321C10.9021 17.2434 11.8125 15.0493 13.4309 13.4309C15.0493 11.8125 17.2434 10.9021 19.5321 10.8992H30.4679C32.7566 10.9021 34.9507 11.8125 36.5691 13.4309C38.1874 15.0493 39.0979 17.2434 39.1008 19.5321V30.4679C39.0979 32.7566 38.1874 34.9507 36.5691 36.5691C34.9507 38.1874 32.7566 39.0979 30.4679 39.1008ZM19.5321 13.0116C17.8034 13.0136 16.146 13.7012 14.9236 14.9236C13.7012 16.146 13.0136 17.8034 13.0116 19.5321V30.4679C13.0165 32.1947 13.7054 33.8493 14.9275 35.0693C16.1495 36.2893 17.8053 36.9754 19.5321 36.9774H30.4679C32.1928 36.9725 33.8457 36.2852 35.0654 35.0654C36.2852 33.8457 36.9725 32.1928 36.9774 30.4679V19.5321C36.9754 17.8053 36.2893 16.1495 35.0693 14.9275C33.8493 13.7054 32.1947 13.0165 30.4679 13.0116H19.5321Z" fill="white"/>
<path d="M24.9981 32.1337C23.5868 32.1337 22.2072 31.7152 21.0338 30.9311C19.8604 30.1471 18.9458 29.0327 18.4057 27.7288C17.8656 26.425 17.7243 24.9902 17.9997 23.6061C18.275 22.2219 18.9546 20.9505 19.9525 19.9526C20.9504 18.9547 22.2219 18.2751 23.606 17.9997C24.9902 17.7244 26.4249 17.8657 27.7287 18.4058C29.0326 18.9459 30.147 19.8604 30.9311 21.0339C31.7151 22.2073 32.1336 23.5869 32.1336 24.9982C32.1317 26.89 31.3793 28.7039 30.0415 30.0416C28.7038 31.3794 26.89 32.1318 24.9981 32.1337ZM24.9981 20.03C24.0146 20.03 23.0532 20.3217 22.2355 20.8682C21.4178 21.4146 20.7806 22.1913 20.4044 23.1C20.0282 24.0087 19.9299 25.0086 20.1221 25.9731C20.3142 26.9377 20.7881 27.8235 21.4838 28.5187C22.1795 29.2139 23.0657 29.6871 24.0304 29.8785C24.9951 30.07 25.9948 29.971 26.9033 29.5941C27.8117 29.2173 28.5879 28.5794 29.1338 27.7614C29.6796 26.9433 29.9706 25.9817 29.9699 24.9982C29.968 23.6805 29.4434 22.4174 28.5113 21.486C27.5792 20.5546 26.3158 20.031 24.9981 20.03Z" fill="white"/>
<path d="M34.7807 17.0901C34.7807 17.4573 34.6719 17.8161 34.4679 18.1214C34.264 18.4266 33.9741 18.6645 33.6349 18.805C33.2957 18.9455 32.9225 18.9823 32.5624 18.9107C32.2024 18.839 31.8716 18.6623 31.612 18.4027C31.3524 18.1431 31.1756 17.8123 31.104 17.4523C31.0324 17.0922 31.0692 16.719 31.2097 16.3798C31.3501 16.0406 31.5881 15.7507 31.8933 15.5468C32.1986 15.3428 32.5574 15.2339 32.9245 15.2339C33.4168 15.2339 33.889 15.4295 34.2371 15.7776C34.5852 16.1257 34.7807 16.5978 34.7807 17.0901Z" fill="white"/>
<defs>
<radialGradient id="paint0_radial" cx="0" cy="0" r="1" gradientUnits="userSpaceOnUse" gradientTransform="translate(-5.4624 67.5258) scale(104.24)">
<stop stop-color="#F9ED41"/>
<stop offset="0.24" stop-color="#FF833D"/>
<stop offset="0.4" stop-color="#EE5568"/>
<stop offset="0.49" stop-color="#E7407B"/>
<stop offset="1" stop-color="#0028FF"/>
</radialGradient>
</defs>
</svg>
