<svg width="409" height="154" viewBox="0 0 409 154" fill="none" xmlns="http://www.w3.org/2000/svg">
<path d="M144.256 63.3147C144.256 63.3147 175.946 71.5588 172.645 128.938H189.481V102.557C189.481 102.557 217.87 44.1884 276.298 8.57384L273.327 3.29761C273.327 3.29761 216.219 29.349 182.879 84.7494C180.568 89.3661 176.937 47.486 144.256 63.3147Z" fill="#4C74A7"/>
<path d="M52.4869 118.056C50.1761 122.343 46.8751 125.64 42.2536 127.949C37.6322 130.257 32.6806 131.576 26.7387 131.576H3.63135V75.8458H27.0688C33.0107 75.8458 37.9623 77.1649 42.5837 79.4732C46.8751 81.7816 50.5062 85.0792 52.817 89.3662C55.1277 93.6531 56.4481 98.2698 56.4481 103.546C55.7879 108.822 54.7976 113.769 52.4869 118.056ZM34.6612 112.779C36.9719 110.801 38.2924 107.503 38.2924 103.546C38.2924 99.5889 36.9719 96.621 34.6612 94.3126C32.3505 92.3341 29.0494 91.015 25.4183 91.015H21.1269V115.747H25.4183C29.0494 116.077 32.3505 114.758 34.6612 112.779Z" fill="black"/>
<path d="M95.4008 89.3661C99.032 91.3447 101.673 93.9828 103.984 97.2804C105.964 100.908 106.954 104.865 106.954 109.482C106.954 114.098 105.964 118.056 103.984 121.683C102.003 125.31 99.032 127.949 95.4008 129.597C91.7697 131.576 87.8084 132.565 83.517 132.565C79.2257 132.565 74.9343 131.576 71.6333 129.597C68.0021 127.619 65.3613 124.981 63.0505 121.683C61.0699 118.056 60.0796 114.098 60.0796 109.482C60.0796 104.865 61.0699 100.908 63.0505 97.2804C65.0312 93.653 68.0021 91.0149 71.6333 89.3661C75.2644 87.3875 79.2257 86.3982 83.517 86.3982C87.8084 86.728 92.0998 87.3875 95.4008 89.3661ZM79.2257 103.546C78.2354 104.865 77.5751 106.844 77.5751 109.152C77.5751 111.46 78.2354 113.439 79.2257 114.758C80.216 116.077 81.5364 116.737 83.517 116.737C85.1676 116.737 86.488 116.077 87.8084 114.758C88.7987 113.439 89.4589 111.46 89.4589 109.152C89.4589 106.844 88.7987 104.865 87.8084 103.546C86.8181 102.227 85.4977 101.567 83.517 101.567C81.8665 101.897 80.5461 102.557 79.2257 103.546Z" fill="black"/>
<path d="M238.336 91.0149C241.967 93.9828 244.278 97.94 245.268 102.557H229.093C228.433 99.9186 226.782 98.9293 223.812 98.9293C222.161 98.9293 221.501 99.5888 221.501 100.908C221.501 101.897 222.161 102.557 223.151 102.886C224.472 103.546 226.122 103.876 228.763 104.206C232.064 104.865 235.035 105.525 237.346 106.514C239.657 107.173 241.637 108.822 243.618 110.801C245.268 112.779 246.259 115.418 246.259 118.715C246.259 121.353 245.598 123.662 243.948 125.64C242.628 127.619 240.317 129.268 237.676 130.587C234.705 131.906 231.404 132.235 227.773 132.235C221.501 132.235 216.219 130.916 212.588 127.949C208.957 125.31 206.316 121.353 205.656 116.077H222.491C222.821 118.715 224.472 120.034 228.103 120.034C229.753 120.034 230.744 119.375 230.744 118.056C230.744 117.066 230.084 116.407 228.763 115.747C227.443 115.088 225.462 114.758 222.821 114.428C219.19 113.769 216.549 113.109 214.238 112.12C211.928 111.46 209.947 110.141 208.297 108.163C206.646 106.184 205.656 103.546 205.656 100.248C205.656 97.6102 206.316 95.3019 207.636 92.9935C208.957 90.6852 211.268 89.3661 213.908 88.0471C216.879 86.728 220.18 86.0685 224.142 86.0685C229.753 86.728 234.705 88.0471 238.336 91.0149Z" fill="black"/>
<path d="M279.929 116.737V131.576H273.327C261.113 131.576 254.841 125.64 254.841 113.439V101.897H249.229V87.3877H254.841V76.8352H272.336V87.3877H279.599V101.897H272.336V113.769C272.336 114.758 272.666 115.747 272.997 116.077C273.657 116.737 274.317 116.737 275.637 116.737H279.929Z" fill="black"/>
<path d="M329.114 112.45H301.056C301.056 114.758 301.716 116.077 302.376 117.066C303.036 118.056 304.357 118.385 305.677 118.385C307.658 118.385 308.978 117.726 309.968 115.747H328.454C327.794 119.045 326.474 121.683 324.493 124.321C322.512 126.63 320.202 128.608 316.901 129.927C313.6 131.246 310.629 131.906 306.667 131.906C302.376 131.906 298.415 130.916 294.784 128.938C291.152 126.959 288.512 124.321 286.861 121.024C284.88 117.396 283.89 113.439 283.89 108.822C283.89 104.206 284.88 100.248 286.861 96.621C288.842 92.9936 291.483 90.3555 294.784 88.7066C298.415 86.7281 302.046 85.7388 306.667 85.7388C310.959 85.7388 314.92 86.7281 318.551 88.3769C322.182 90.3555 324.823 92.6638 326.474 96.2912C328.124 99.9186 329.445 103.546 329.445 108.163C329.445 110.141 329.445 111.131 329.114 112.45ZM311.619 105.195C311.619 103.546 310.959 102.227 310.299 101.567C309.308 100.908 308.318 100.248 306.667 100.248C303.366 100.248 301.716 101.897 301.056 105.195H311.619Z" fill="black"/>
<path d="M374.339 89.3663C377.31 91.3449 379.291 93.6532 380.941 97.2806C382.592 100.908 383.252 104.865 383.252 109.482C383.252 114.099 382.592 118.056 380.941 121.683C379.291 125.311 377.31 127.619 374.339 129.598C371.368 131.576 368.397 132.236 365.096 132.236C362.125 132.236 359.815 131.576 357.504 130.587C355.523 129.268 353.873 127.619 352.552 125.64V153.011H335.057V87.3877H352.552V93.3234C353.543 91.3449 355.193 89.696 357.504 88.377C359.815 87.0579 362.125 86.7281 365.096 86.7281C368.397 86.7281 371.368 87.3877 374.339 89.3663ZM354.203 103.876C352.882 105.195 352.222 107.174 352.222 109.482C352.222 111.79 352.882 113.769 354.203 115.088C355.523 116.407 357.174 117.066 358.824 117.066C360.475 117.066 362.455 116.407 363.446 115.088C364.766 113.769 365.426 111.79 365.426 109.482C365.426 107.174 364.766 105.195 363.446 103.876C362.125 102.557 360.475 101.897 358.824 101.897C357.174 101.897 355.523 102.557 354.203 103.876Z" fill="black"/>
<path d="M151.849 86.728C154.49 88.3769 156.8 91.015 158.451 94.6424C160.101 97.94 160.762 102.227 160.762 106.844C160.762 111.46 160.101 115.747 158.451 119.045C156.8 122.343 154.49 124.981 151.849 126.959C149.208 128.938 145.907 129.597 142.606 129.597C139.635 129.597 137.324 128.938 135.014 127.949C132.703 126.959 131.382 125.31 130.392 123.002V128.938H112.896V70.5696H130.392V90.3554C131.382 88.3769 133.033 86.728 135.014 85.409C136.994 84.0899 139.635 83.7602 142.606 83.7602C145.907 84.0899 148.878 84.7494 151.849 86.728ZM132.043 101.238C130.722 102.557 130.062 104.535 130.062 106.844C130.062 109.152 130.722 111.131 132.043 112.45C133.363 113.769 134.683 114.428 136.664 114.428C138.645 114.428 139.965 113.769 141.285 112.45C142.606 111.131 142.936 109.152 142.936 106.844C142.936 104.535 142.276 102.557 141.285 101.238C139.965 99.9186 138.645 99.2591 136.664 99.2591C134.683 99.2591 133.033 99.9186 132.043 101.238Z" fill="black"/>
<path d="M397.446 75.8458C399.427 75.8458 400.747 77.1649 400.747 78.8137C400.747 80.7923 399.427 81.7816 397.446 81.7816C395.465 81.7816 394.145 80.4625 394.145 78.8137C394.145 77.1649 395.796 75.8458 397.446 75.8458Z" fill="black"/>
<path d="M395.135 94.9723C394.805 94.3128 394.475 92.9937 394.475 91.3449C394.475 87.3877 397.116 85.0793 401.077 85.0793C405.038 85.0793 408.009 87.7175 408.009 92.0044C408.009 93.3235 407.679 94.6425 407.349 95.302L405.369 94.6425C405.699 93.983 406.029 93.3235 406.029 92.0044C406.029 89.0365 403.718 87.3877 401.077 87.3877C398.106 87.3877 396.126 89.3663 396.126 92.0044C396.126 93.3235 396.456 94.3128 396.786 94.9723H395.135Z" fill="black"/>
<path d="M401.407 109.482C396.456 109.482 394.475 106.184 394.475 103.216C394.475 99.5889 397.116 96.9508 401.077 96.9508C405.369 96.9508 408.009 99.9187 408.009 103.216C408.009 106.844 405.369 109.482 401.407 109.482ZM401.407 99.2592C398.436 99.2592 396.456 100.908 396.456 103.216C396.456 105.525 398.436 107.174 401.407 107.174C403.388 107.174 406.359 106.184 406.359 103.216C406.359 100.248 403.718 99.2592 401.407 99.2592Z" fill="black"/>
<path d="M404.378 112.45C405.698 112.45 406.688 112.45 408.009 112.45V114.428H406.028C407.349 115.088 408.339 116.407 408.339 118.385C408.339 120.034 407.349 121.353 405.698 122.013C406.358 122.343 407.019 123.002 407.349 123.332C408.009 123.991 408.339 124.981 408.339 126.3C408.339 127.949 407.349 130.587 402.727 130.587H395.135V128.278H402.397C405.038 128.278 406.358 127.289 406.358 125.31C406.358 123.991 405.368 123.002 404.378 122.343C404.048 122.343 403.717 122.343 403.057 122.343H395.135V120.034H403.057C405.038 120.034 406.688 119.045 406.688 117.396C406.688 116.077 405.368 114.758 404.378 114.428C404.048 114.428 403.717 114.428 403.057 114.428H395.135V112.12L404.378 112.45Z" fill="black"/>
</svg>
