<svg width="337" height="128" viewBox="0 0 337 128" fill="none" xmlns="http://www.w3.org/2000/svg">
<path d="M118.861 52.2228C118.861 52.2228 144.973 59.0226 142.253 106.349H156.125V84.59C156.125 84.59 179.516 36.4471 227.659 7.07183L225.211 2.71994C225.211 2.71994 178.156 24.2074 150.685 69.9023C148.781 73.7103 145.789 39.1671 118.861 52.2228Z" fill="#4C74A7"/>
<path d="M43.2471 97.3737C41.3432 100.91 38.6232 103.63 34.8153 105.533C31.0074 107.437 26.9275 108.525 22.0316 108.525H2.99207V62.5585H22.3036C27.1995 62.5585 31.2794 63.6465 35.0873 65.5504C38.6232 67.4544 41.6151 70.1743 43.5191 73.7103C45.4231 77.2462 46.511 81.0541 46.511 85.406C45.967 89.7579 45.1511 93.8378 43.2471 97.3737ZM28.5595 93.0218C30.4634 91.3898 31.5514 88.6699 31.5514 85.406C31.5514 82.142 30.4634 79.6941 28.5595 77.7902C26.6555 76.1582 23.9356 75.0702 20.9436 75.0702H17.4077V95.4697H20.9436C23.9356 95.7417 26.6555 94.6538 28.5595 93.0218Z" fill="white"/>
<path d="M78.6065 73.7102C81.5984 75.3421 83.7744 77.5181 85.6783 80.238C87.3103 83.2299 88.1263 86.4939 88.1263 90.3018C88.1263 94.1097 87.3103 97.3736 85.6783 100.366C84.0463 103.357 81.5984 105.533 78.6065 106.893C75.6145 108.525 72.3506 109.341 68.8147 109.341C65.2788 109.341 61.7429 108.525 59.0229 106.893C56.031 105.261 53.8551 103.085 51.9511 100.366C50.3192 97.3736 49.5032 94.1097 49.5032 90.3018C49.5032 86.4939 50.3192 83.2299 51.9511 80.238C53.5831 77.2461 56.031 75.0701 59.0229 73.7102C62.0149 72.0782 65.2788 71.2622 68.8147 71.2622C72.3506 71.5342 75.8865 72.0782 78.6065 73.7102ZM65.2788 85.4059C64.4628 86.4939 63.9188 88.1258 63.9188 90.0298C63.9188 91.9337 64.4628 93.5657 65.2788 94.6537C66.0948 95.7416 67.1827 96.2856 68.8147 96.2856C70.1747 96.2856 71.2627 95.7416 72.3506 94.6537C73.1666 93.5657 73.7106 91.9337 73.7106 90.0298C73.7106 88.1258 73.1666 86.4939 72.3506 85.4059C71.5346 84.3179 70.4467 83.7739 68.8147 83.7739C67.4547 84.0459 66.3668 84.5899 65.2788 85.4059Z" fill="white"/>
<path d="M196.38 75.0702C199.372 77.5181 201.276 80.782 202.092 84.59H188.764C188.22 82.414 186.86 81.598 184.412 81.598C183.052 81.598 182.508 82.142 182.508 83.23C182.508 84.046 183.052 84.59 183.868 84.8619C184.956 85.4059 186.316 85.6779 188.492 85.9499C191.212 86.4939 193.66 87.0379 195.564 87.8539C197.468 88.3979 199.1 89.7578 200.732 91.3898C202.092 93.0217 202.908 95.1977 202.908 97.9176C202.908 100.094 202.364 101.998 201.004 103.629C199.916 105.261 198.012 106.621 195.836 107.709C193.388 108.797 190.668 109.069 187.676 109.069C182.508 109.069 178.156 107.981 175.164 105.533C172.172 103.358 169.996 100.094 169.452 95.7417H183.324C183.596 97.9176 184.956 99.0056 187.948 99.0056C189.308 99.0056 190.124 98.4616 190.124 97.3736C190.124 96.5577 189.58 96.0137 188.492 95.4697C187.404 94.9257 185.772 94.6537 183.596 94.3817C180.604 93.8377 178.428 93.2937 176.524 92.4778C174.62 91.9338 172.988 90.8458 171.628 89.2138C170.268 87.5819 169.452 85.4059 169.452 82.686C169.452 80.51 169.996 78.6061 171.084 76.7021C172.172 74.7982 174.076 73.7102 176.252 72.6222C178.7 71.5343 181.42 70.9903 184.684 70.9903C189.308 71.5343 193.388 72.6222 196.38 75.0702Z" fill="white"/>
<path d="M230.651 96.2858V108.526H225.211C215.147 108.526 209.979 103.63 209.979 93.5659V84.0461H205.355V72.0784H209.979V63.3746H224.395V72.0784H230.379V84.0461H224.395V93.8379C224.395 94.6538 224.667 95.4698 224.939 95.7418C225.483 96.2858 226.027 96.2858 227.115 96.2858H230.651Z" fill="white"/>
<path d="M271.178 92.7498H248.058C248.058 94.6537 248.602 95.7417 249.146 96.5577C249.69 97.3737 250.778 97.6457 251.866 97.6457C253.498 97.6457 254.586 97.1017 255.402 95.4697H270.634C270.09 98.1897 269.002 100.366 267.37 102.542C265.738 104.446 263.834 106.077 261.114 107.165C258.394 108.253 255.946 108.797 252.682 108.797C249.146 108.797 245.882 107.981 242.89 106.349C239.898 104.718 237.722 102.542 236.362 99.8216C234.73 96.8297 233.914 93.5658 233.914 89.7579C233.914 85.95 234.73 82.686 236.362 79.6941C237.994 76.7022 240.17 74.5262 242.89 73.1663C245.882 71.5343 248.874 70.7183 252.682 70.7183C256.218 70.7183 259.482 71.5343 262.474 72.8943C265.466 74.5262 267.642 76.4302 269.002 79.4221C270.362 82.414 271.45 85.406 271.45 89.2139C271.45 90.8458 271.45 91.6618 271.178 92.7498ZM256.762 86.7659C256.762 85.406 256.218 84.318 255.674 83.774C254.858 83.23 254.042 82.686 252.682 82.686C249.962 82.686 248.602 84.046 248.058 86.7659H256.762Z" fill="white"/>
<path d="M308.441 73.7103C310.889 75.3423 312.521 77.2462 313.881 80.2382C315.241 83.2301 315.785 86.494 315.785 90.3019C315.785 94.1098 315.241 97.3738 313.881 100.366C312.521 103.358 310.889 105.262 308.441 106.894C305.993 108.526 303.545 109.069 300.825 109.069C298.377 109.069 296.473 108.526 294.569 107.71C292.937 106.622 291.577 105.262 290.489 103.63V126.205H276.073V72.0784H290.489V76.9742C291.305 75.3423 292.665 73.9823 294.569 72.8943C296.473 71.8064 298.377 71.5344 300.825 71.5344C303.545 71.5344 305.993 72.0784 308.441 73.7103ZM291.849 85.678C290.761 86.766 290.217 88.398 290.217 90.3019C290.217 92.2059 290.761 93.8379 291.849 94.9258C292.937 96.0138 294.297 96.5578 295.657 96.5578C297.017 96.5578 298.649 96.0138 299.465 94.9258C300.553 93.8379 301.097 92.2059 301.097 90.3019C301.097 88.398 300.553 86.766 299.465 85.678C298.377 84.5901 297.017 84.0461 295.657 84.0461C294.297 84.0461 292.937 84.5901 291.849 85.678Z" fill="white"/>
<path d="M125.117 71.5343C127.293 72.8943 129.197 75.0703 130.557 78.0622C131.917 80.7821 132.461 84.318 132.461 88.126C132.461 91.9339 131.917 95.4698 130.557 98.1897C129.197 100.91 127.293 103.086 125.117 104.718C122.941 106.35 120.221 106.894 117.502 106.894C115.054 106.894 113.15 106.35 111.246 105.534C109.342 104.718 108.254 103.358 107.438 101.454V106.35H93.0221V58.2067H107.438V74.5263C108.254 72.8943 109.614 71.5343 111.246 70.4464C112.878 69.3584 115.054 69.0864 117.502 69.0864C120.221 69.3584 122.669 69.9024 125.117 71.5343ZM108.798 83.5021C107.71 84.59 107.166 86.222 107.166 88.126C107.166 90.0299 107.71 91.6619 108.798 92.7498C109.886 93.8378 110.974 94.3818 112.606 94.3818C114.238 94.3818 115.326 93.8378 116.414 92.7498C117.502 91.6619 117.773 90.0299 117.773 88.126C117.773 86.222 117.23 84.59 116.414 83.5021C115.326 82.4141 114.238 81.8701 112.606 81.8701C110.974 81.8701 109.614 82.4141 108.798 83.5021Z" fill="white"/>
<path d="M327.48 62.5585C329.112 62.5585 330.2 63.6465 330.2 65.0065C330.2 66.6384 329.112 67.4544 327.48 67.4544C325.848 67.4544 324.76 66.3664 324.76 65.0065C324.76 63.6465 326.12 62.5585 327.48 62.5585Z" fill="white"/>
<path d="M325.576 78.3342C325.304 77.7902 325.032 76.7023 325.032 75.3423C325.032 72.0784 327.208 70.1744 330.472 70.1744C333.736 70.1744 336.184 72.3504 336.184 75.8863C336.184 76.9743 335.912 78.0622 335.64 78.6062L334.008 78.0622C334.28 77.5182 334.552 76.9743 334.552 75.8863C334.552 73.4383 332.648 72.0784 330.472 72.0784C328.024 72.0784 326.392 73.7103 326.392 75.8863C326.392 76.9743 326.664 77.7902 326.936 78.3342H325.576Z" fill="white"/>
<path d="M330.744 90.3019C326.664 90.3019 325.032 87.582 325.032 85.134C325.032 82.1421 327.208 79.9661 330.472 79.9661C334.008 79.9661 336.184 82.4141 336.184 85.134C336.184 88.1259 334.008 90.3019 330.744 90.3019ZM330.744 81.8701C328.296 81.8701 326.664 83.2301 326.664 85.134C326.664 87.038 328.296 88.3979 330.744 88.3979C332.376 88.3979 334.824 87.582 334.824 85.134C334.824 82.6861 332.648 81.8701 330.744 81.8701Z" fill="white"/>
<path d="M333.192 92.7498C334.28 92.7498 335.096 92.7498 336.184 92.7498V94.3818H334.552C335.64 94.9258 336.456 96.0137 336.456 97.6457C336.456 99.0057 335.64 100.094 334.28 100.638C334.824 100.91 335.368 101.454 335.64 101.726C336.184 102.27 336.456 103.086 336.456 104.174C336.456 105.533 335.64 107.709 331.832 107.709H325.576V105.805H331.56C333.736 105.805 334.824 104.99 334.824 103.358C334.824 102.27 334.008 101.454 333.192 100.91C332.92 100.91 332.648 100.91 332.104 100.91H325.576V99.0057H332.104C333.736 99.0057 335.096 98.1897 335.096 96.8297C335.096 95.7417 334.008 94.6538 333.192 94.3818C332.92 94.3818 332.648 94.3818 332.104 94.3818H325.576V92.4778L333.192 92.7498Z" fill="white"/>
</svg>
