<svg width="51" height="50" viewBox="0 0 51 50" fill="none" xmlns="http://www.w3.org/2000/svg">
<g clip-path="url(#clip0)">
<path d="M21.4554 24.5662C22.6546 25.5784 23.8947 26.6251 25.2125 27.7672C25.4878 28.0058 25.8298 28.1251 26.1719 28.1251C26.5139 28.1251 26.856 28.0058 27.1313 27.7672C28.4488 26.6253 29.6888 25.5787 30.888 24.5667C32.9722 22.8075 34.7721 21.2884 36.334 19.8147C39.3665 16.9536 42.1726 13.7061 42.1726 9.35439C42.1726 6.88086 41.3234 4.56436 39.7816 2.83154C38.1569 1.00557 35.9047 0 33.4398 0C30.6887 0 28.3038 1.30088 26.5432 3.76191C26.4111 3.94639 26.2876 4.13096 26.1719 4.31357C26.0563 4.13086 25.9327 3.94639 25.8007 3.76191C24.04 1.30088 21.6552 0 18.904 0C16.4392 0 14.1869 1.00557 12.5623 2.83145C11.0205 4.56426 10.1714 6.88076 10.1714 9.3543C10.1714 12.0423 11.2145 14.5227 13.4537 17.1604C15.4076 19.4616 18.2103 21.8271 21.4554 24.5662Z" fill="#FF3F2E"/>
<path d="M49.6245 36.5234L42.5932 45.8983C40.6597 48.4765 37.6127 50 34.39 50H21.3236C16.7533 50 12.271 49.0625 8.05225 47.2754L7.72998 38.2519C9.69277 28.8475 19.4194 26.5038 25.0443 31.455C25.6597 31.9529 26.3627 32.2754 27.0658 32.3632C27.2709 32.4219 27.4467 32.4219 27.6225 32.4219H32.9252C33.4525 32.4219 33.9505 32.5684 34.39 32.832C35.2395 33.3007 35.8256 34.2382 35.8549 35.3222V35.3515C35.8549 36.4355 35.2689 37.373 34.39 37.871C33.9505 38.1348 33.4525 38.2812 32.9252 38.2812H23.9896C23.1692 38.2812 22.5248 38.9256 22.5248 39.746C22.5248 40.5662 23.1692 41.2109 23.9896 41.2109H35.3568C36.8217 41.2109 37.8764 40.5955 38.7845 39.5702L45.435 31.8944C46.4896 30.7519 48.306 30.6639 49.3899 31.6014C49.6537 31.8065 49.8879 32.0409 50.0637 32.3338C50.7378 33.3301 50.6498 35.1758 49.6245 36.5234Z" fill="#F2D1A5"/>
<path d="M12.4175 33.8867C12.4175 31.4635 10.4462 29.4922 8.02295 29.4922H1.96826C1.15859 29.4922 0.503418 30.1474 0.503418 30.957V48.5352C0.503418 49.3448 1.15859 50 1.96826 50H8.02295C10.4462 50 12.4175 48.0287 12.4175 45.6055V33.8867Z" fill="#1EA1E3"/>
<path d="M26.1719 38.2812H32.9252C33.4525 38.2812 33.9505 38.1347 34.39 37.8711C35.2689 37.3731 35.8549 36.4355 35.8549 35.3515V35.3222C35.8256 34.2383 35.2396 33.3008 34.39 32.8321C33.9505 32.5683 33.4525 32.4219 32.9252 32.4219H27.6225C27.4467 32.4219 27.2709 32.4219 27.0658 32.3633C26.7654 32.3258 26.4654 32.243 26.1719 32.1244V38.2812Z" fill="#F2BB88"/>
<path d="M42.5932 45.8983L49.6245 36.5233C50.6498 35.1758 50.7378 33.3301 50.0639 32.3339C49.8881 32.041 49.6539 31.8065 49.3901 31.6015C48.3061 30.664 46.4897 30.752 45.4352 31.8945L38.7847 39.5703C37.8765 40.5956 36.8218 41.2109 35.3569 41.2109H26.1719V50H34.39C37.6127 50 40.6597 48.4765 42.5932 45.8983Z" fill="#F2BB88"/>
<path d="M27.1313 27.7671C28.4488 26.6252 29.6888 25.5786 30.888 24.5666C32.9722 22.8074 34.7721 21.2883 36.334 19.8146C39.3665 16.9535 42.1726 13.706 42.1726 9.3543C42.1726 6.88076 41.3234 4.56426 39.7816 2.83145C38.1569 1.00557 35.9047 0 33.4398 0C30.6887 0 28.3038 1.30088 26.5432 3.76191C26.4111 3.94639 26.2876 4.13096 26.1719 4.31357V28.125C26.5139 28.125 26.856 28.0057 27.1313 27.7671Z" fill="#CF0404"/>
</g>
<defs>
<clipPath id="clip0">
<rect width="50" height="50" fill="white" transform="translate(0.5)"/>
</clipPath>
</defs>
</svg>
