<svg width="50" height="50" viewBox="0 0 50 50" fill="none" xmlns="http://www.w3.org/2000/svg">
<path d="M41.0711 0H8.92895C3.99763 0 0 3.99763 0 8.92895V41.0711C0 46.0024 3.99763 50 8.92895 50H41.0711C46.0024 50 50 46.0024 50 41.0711V8.92895C50 3.99763 46.0024 0 41.0711 0Z" fill="#CD2129"/>
<path d="M16.9933 27.3245C17.077 27.3671 17.1696 27.3895 17.2636 27.3898C17.3576 27.3902 17.4504 27.3684 17.5345 27.3264C17.6186 27.2844 17.6916 27.2232 17.7477 27.1478C17.8039 27.0724 17.8415 26.9849 17.8577 26.8923C17.9315 26.5971 18.1212 25.8381 18.195 25.5218C18.2617 25.3586 18.2741 25.1783 18.2304 25.0074C18.1868 24.8366 18.0894 24.6843 17.9526 24.5731C17.191 23.6311 16.8043 22.441 16.8668 21.2313C16.8527 20.1321 17.0633 19.0415 17.4856 18.0266C17.9079 17.0116 18.533 16.0935 19.3226 15.3286C20.1121 14.5637 21.0496 13.9681 22.0775 13.5782C23.1053 13.1884 24.202 13.0125 25.3002 13.0614C29.8754 13.0614 32.3949 15.8655 32.3949 19.5973C32.3949 24.5204 30.2233 28.6633 26.9869 28.6633C26.5708 28.6929 26.1535 28.6232 25.7696 28.4601C25.3856 28.2969 25.0458 28.0449 24.7782 27.7248C24.5106 27.4048 24.3229 27.0257 24.2303 26.6189C24.1378 26.2121 24.1432 25.7891 24.246 25.3848C24.7626 23.2764 25.7535 20.894 25.7535 19.3338C25.7927 19.0094 25.762 18.6804 25.6634 18.3689C25.5647 18.0574 25.4005 17.7706 25.1818 17.5279C24.963 17.2852 24.6948 17.0921 24.3952 16.9618C24.0956 16.8314 23.7716 16.7667 23.4449 16.7721C21.6211 16.7721 20.1558 18.6591 20.1558 21.1786C20.1438 22.107 20.3307 23.0272 20.704 23.8773L18.5113 33.1752C18.1273 35.3178 18.1095 37.5099 18.4586 39.6585C18.4675 39.702 18.4887 39.7421 18.5197 39.7739C18.5508 39.8058 18.5903 39.828 18.6337 39.838C18.677 39.848 18.7223 39.8453 18.7641 39.8303C18.806 39.8153 18.8426 39.7886 18.8697 39.7533C20.2157 38.0899 21.2577 36.2021 21.9479 34.1767C22.1377 33.4177 23.1181 29.5172 23.1181 29.5172C23.5885 30.1933 24.221 30.7406 24.9577 31.109C25.6943 31.4773 26.5117 31.6549 27.3348 31.6256C32.8166 31.6256 36.5273 26.6182 36.5273 19.9346C36.5273 14.8746 32.2473 10.1624 25.7324 10.1624C17.6363 10.1624 13.5461 15.9709 13.5461 20.8202C13.5039 23.7403 14.6213 26.3546 16.9933 27.3245Z" fill="white"/>
</svg>
