<svg width="50" height="50" viewBox="0 0 50 50" fill="none" xmlns="http://www.w3.org/2000/svg">
<path d="M41.0711 0H8.92895C3.99763 0 0 3.99763 0 8.92895V41.0711C0 46.0024 3.99763 50 8.92895 50H41.0711C46.0024 50 50 46.0024 50 41.0711V8.92895C50 3.99763 46.0024 0 41.0711 0Z" fill="#DF4B38"/>
<path d="M28.1256 24.3517H18.0265V27.2401H24.8365C24.0248 30.7611 21.5474 32.9222 18.2057 32.9222C16.9107 32.929 15.6337 32.6185 14.4864 32.0177C13.3392 31.417 12.3566 30.5443 11.6245 29.4761C10.8925 28.4078 10.4333 27.1764 10.2871 25.8897C10.1409 24.6029 10.3122 23.3 10.7859 22.0947C11.2597 20.8895 12.0215 19.8186 13.0048 18.9758C13.988 18.133 15.1628 17.544 16.4263 17.2601C17.6899 16.9763 19.0037 17.0063 20.253 17.3476C21.5022 17.6888 22.6488 18.3309 23.5926 19.2178L25.8274 17.2992C24.5621 16.0363 23.0046 15.1053 21.2931 14.589C19.5816 14.0727 17.7691 13.9869 16.0165 14.3393C14.2638 14.6917 12.6254 15.4714 11.2465 16.6091C9.86755 17.7469 8.7909 19.2075 8.11208 20.8613C7.43326 22.5151 7.17327 24.3109 7.35521 26.0893C7.53714 27.8678 8.15536 29.5737 9.15498 31.0558C10.1546 32.5379 11.5047 33.7503 13.0854 34.5853C14.6661 35.4203 16.4286 35.852 18.2162 35.8423C23.9826 35.8423 28.1361 31.4463 28.1361 25.448L28.1256 24.3517Z" fill="white"/>
<path d="M42.6416 24.4677H38.4671V20.2931H35.8105V24.4677H31.6465V27.1242H35.8105V31.2988H38.4671V27.1242H42.6416V24.4677Z" fill="white"/>
</svg>
