<svg width="50" height="50" viewBox="0 0 50 50" fill="none" xmlns="http://www.w3.org/2000/svg">
<g clip-path="url(#clip0)">
<path d="M7.70458 0H42.2954C46.5504 0 50 3.44947 50 7.7046V42.2952C50 46.5502 46.5504 49.9998 42.2954 49.9998H7.70458C3.44948 49.9998 0 46.5502 0 42.2952V7.7046C0 3.44947 3.44948 0 7.70458 0Z" fill="#4C75A3"/>
<path d="M24.5807 35.0016H26.626C26.626 35.0016 27.2436 34.9335 27.5595 34.5937C27.8497 34.2814 27.8405 33.6953 27.8405 33.6953C27.8405 33.6953 27.8004 30.9509 29.074 30.5467C30.3299 30.1484 31.9422 33.1991 33.6511 34.3722C34.9434 35.2597 35.9254 35.0655 35.9254 35.0655L40.4951 35.0016C40.4951 35.0016 42.8855 34.8541 41.752 32.9746C41.6592 32.8211 41.0916 31.5843 38.3542 29.0433C35.4886 26.3838 35.8727 26.8141 39.3243 22.2137C41.4263 19.4121 42.2665 17.7017 42.0039 16.9693C41.7538 16.2714 40.2076 16.4557 40.2076 16.4557L35.0625 16.4876C35.0625 16.4876 34.6809 16.4356 34.3982 16.6048C34.1216 16.7702 33.9441 17.1568 33.9441 17.1568C33.9441 17.1568 33.1295 19.3246 32.0438 21.1685C29.7528 25.0588 28.8365 25.2647 28.462 25.0228C27.5907 24.4597 27.8084 22.7612 27.8084 21.5542C27.8084 17.7839 28.3803 16.212 26.6948 15.805C26.1356 15.6701 25.7237 15.5808 24.2933 15.5662C22.4573 15.5476 20.9038 15.5718 20.0239 16.0029C19.4386 16.2895 18.987 16.9282 19.2622 16.965C19.6023 17.0102 20.3722 17.1728 20.7805 17.7283C21.3079 18.4458 21.2895 20.0566 21.2895 20.0566C21.2895 20.0566 21.5925 24.4948 20.5819 25.0459C19.8885 25.4241 18.937 24.6521 16.8944 21.1226C15.848 19.3147 15.0577 17.3161 15.0577 17.3161C15.0577 17.3161 14.9055 16.9426 14.6337 16.7427C14.304 16.5005 13.8433 16.4238 13.8433 16.4238L8.95394 16.4557C8.95394 16.4557 8.22009 16.4762 7.95045 16.7953C7.71055 17.0794 7.93128 17.6664 7.93128 17.6664C7.93128 17.6664 11.7589 26.6218 16.0933 31.1349C20.0681 35.2732 24.5807 35.0016 24.5807 35.0016Z" fill="white"/>
</g>
<defs>
<clipPath id="clip0">
<rect width="50" height="50" fill="white"/>
</clipPath>
</defs>
</svg>
