<svg width="50" height="50" viewBox="0 0 50 50" fill="none" xmlns="http://www.w3.org/2000/svg">
<path d="M41.4556 0H8.54444C3.82548 0 0 3.82548 0 8.54444V41.4556C0 46.1745 3.82548 50 8.54444 50H41.4556C46.1745 50 50 46.1745 50 41.4556V8.54444C50 3.82548 46.1745 0 41.4556 0Z" fill="#395398"/>
<path d="M34.3096 50V30.8025H40.7527L41.7338 23.3233H34.3096V18.5459C34.3096 16.3787 34.91 14.9033 38.0144 14.9033H41.9754V8.2113C40.0579 8.00684 38.1306 7.90785 36.2023 7.91477C30.4913 7.91477 26.5815 11.4036 26.5815 17.7991V23.3233H20.1348V30.8025H26.5815V50H34.3096Z" fill="white"/>
</svg>
