<svg width="50" height="50" viewBox="0 0 50 50" fill="none" xmlns="http://www.w3.org/2000/svg">
<path d="M41.0711 0H8.92895C3.99763 0 0 3.99763 0 8.92895V41.0711C0 46.0024 3.99763 50 8.92895 50H41.0711C46.0024 50 50 46.0024 50 41.0711V8.92895C50 3.99763 46.0024 0 41.0711 0Z" fill="#29A9E1"/>
<path d="M11.6804 33.365C14.0796 34.9032 16.8556 35.752 19.7047 35.8185C22.5538 35.885 25.3664 35.1666 27.8347 33.742C30.303 32.3174 32.332 30.2414 33.6997 27.7411C35.0674 25.2408 35.7211 22.4126 35.5893 19.5657C36.6584 18.7918 37.5827 17.8354 38.3197 16.7405C37.3149 17.1839 36.2485 17.4718 35.1571 17.5944C36.3003 16.9125 37.155 15.8366 37.5607 14.5689C36.4907 15.21 35.317 15.6595 34.0924 15.8971C33.2687 15.0187 32.1781 14.4365 30.9898 14.241C29.8016 14.0454 28.582 14.2474 27.5201 14.8155C26.4583 15.3836 25.6136 16.2862 25.117 17.3833C24.6204 18.4804 24.4996 19.7107 24.7734 20.8834C22.6003 20.7772 20.4741 20.2134 18.534 19.2288C16.5938 18.2441 14.8834 16.861 13.5147 15.1697C12.8154 16.3739 12.6005 17.7991 12.9138 19.1559C13.227 20.5128 14.0449 21.6995 15.2014 22.4752C14.3329 22.4468 13.4837 22.2119 12.7241 21.79C12.7106 23.0635 13.1409 24.3019 13.9412 25.2926C14.7414 26.2833 15.8617 26.9644 17.1095 27.2191C16.3048 27.4377 15.4604 27.4666 14.6427 27.3034C14.9899 28.3907 15.6685 29.3421 16.5834 30.0246C17.4984 30.707 18.6038 31.0861 19.7449 31.109C17.4601 32.8964 14.561 33.7073 11.6804 33.365Z" fill="white"/>
</svg>
