<?xml version="1.0" encoding="UTF-8" standalone="no"?>
<svg
   xmlns:dc="http://purl.org/dc/elements/1.1/"
   xmlns:cc="http://creativecommons.org/ns#"
   xmlns:rdf="http://www.w3.org/1999/02/22-rdf-syntax-ns#"
   xmlns:svg="http://www.w3.org/2000/svg"
   xmlns="http://www.w3.org/2000/svg"
   xmlns:sodipodi="http://sodipodi.sourceforge.net/DTD/sodipodi-0.dtd"
   xmlns:inkscape="http://www.inkscape.org/namespaces/inkscape"
   width="50"
   height="50"
   viewBox="0 0 50 50"
   fill="none"
   version="1.1"
   id="svg13"
   sodipodi:docname="tg.svg"
   inkscape:version="1.0.1 (0767f8302a, 2020-10-17)">
  <metadata
     id="metadata17">
    <rdf:RDF>
      <cc:Work
         rdf:about="">
        <dc:format>image/svg+xml</dc:format>
        <dc:type
           rdf:resource="http://purl.org/dc/dcmitype/StillImage" />
        <dc:title></dc:title>
      </cc:Work>
    </rdf:RDF>
  </metadata>
  <sodipodi:namedview
     pagecolor="#ffffff"
     bordercolor="#666666"
     borderopacity="1"
     objecttolerance="10"
     gridtolerance="10"
     guidetolerance="10"
     inkscape:pageopacity="0"
     inkscape:pageshadow="2"
     inkscape:window-width="1631"
     inkscape:window-height="995"
     id="namedview15"
     showgrid="false"
     inkscape:zoom="4.24"
     inkscape:cx="18.384392"
     inkscape:cy="35.190906"
     inkscape:window-x="49"
     inkscape:window-y="27"
     inkscape:window-maximized="1"
     inkscape:current-layer="svg13" />
  <g
     clip-path="url(#clip0)"
     id="g6"
     style="fill:#039be5;fill-opacity:1">
    <path
       d="M7.70458 -3.8147e-05H42.2954C46.5504 -3.8147e-05 50 3.44943 50 7.70457V42.2952C50 46.5502 46.5504 49.9998 42.2954 49.9998H7.70458C3.44948 49.9998 0 46.5502 0 42.2952V7.70457C0 3.44943 3.44948 -3.8147e-05 7.70458 -3.8147e-05Z"
       fill="#4C75A3"
       id="path2"
       style="fill:#039be5;fill-opacity:1" />
  </g>
  <defs
     id="defs11">
    <clipPath
       id="clip0">
      <rect
         width="50"
         height="50"
         fill="white"
         id="rect8" />
    </clipPath>
  </defs>
  <path
     d="m 20.153039,29.172984 -0.593858,8.352852 c 0.849642,0 1.217625,-0.364981 1.658901,-0.803272 l 3.983464,-3.806949 8.254123,6.044745 c 1.513806,0.843664 2.58035,0.399395 2.988719,-1.392635 l 5.417983,-25.387645 0.002,-0.0017 C 42.344001,9.9408405 41.054573,9.0657653 39.579662,9.614742 L 7.7328963,21.807456 c -2.1734718,0.84366 -2.1405663,2.055298 -0.369472,2.604281 l 8.1419317,2.532479 18.912092,-11.833699 c 0.890033,-0.589371 1.699288,-0.263272 1.033636,0.326093 z"
     fill="#039be5"
     id="path842"
     style="fill:#ffffff;stroke-width:1.49583" />
</svg>
