<svg width="50" height="50" viewBox="0 0 50 50" fill="none" xmlns="http://www.w3.org/2000/svg">
<g clip-path="url(#clip0)">
<path d="M7.70458 -3.8147e-05H42.2954C46.5504 -3.8147e-05 50 3.44943 50 7.70457V42.2952C50 46.5502 46.5504 49.9998 42.2954 49.9998H7.70458C3.44948 49.9998 0 46.5502 0 42.2952V7.70457C0 3.44943 3.44948 -3.8147e-05 7.70458 -3.8147e-05Z" fill="#4C75A3"/>
<path d="M24.5806 35.0016H26.6259C26.6259 35.0016 27.2435 34.9335 27.5593 34.5937C27.8496 34.2814 27.8404 33.6953 27.8404 33.6953C27.8404 33.6953 27.8003 30.9509 29.0739 30.5467C30.3298 30.1484 31.9421 33.1991 33.651 34.3722C34.9432 35.2597 35.9253 35.0655 35.9253 35.0655L40.495 35.0016C40.495 35.0016 42.8854 34.8541 41.7519 32.9746C41.6591 32.8211 41.0915 31.5843 38.3541 29.0433C35.4885 26.3838 35.8726 26.8141 39.3242 22.2137C41.4262 19.4121 42.2664 17.7018 42.0038 16.9693C41.7537 16.2714 40.2075 16.4558 40.2075 16.4558L35.0624 16.4876C35.0624 16.4876 34.6807 16.4356 34.398 16.6048C34.1215 16.7702 33.944 17.1568 33.944 17.1568C33.944 17.1568 33.1293 19.3246 32.0437 21.1685C29.7527 25.0588 28.8364 25.2648 28.4619 25.0228C27.5906 24.4597 27.8083 22.7612 27.8083 21.5542C27.8083 17.7839 28.3802 16.212 26.6947 15.805C26.1355 15.6701 25.7236 15.5808 24.2931 15.5662C22.4572 15.5476 20.9037 15.5718 20.0238 16.0029C19.4385 16.2896 18.9868 16.9282 19.262 16.965C19.6022 17.0102 20.3721 17.1728 20.7804 17.7283C21.3078 18.4458 21.2893 20.0566 21.2893 20.0566C21.2893 20.0566 21.5924 24.4948 20.5818 25.0459C19.8883 25.4241 18.9369 24.6521 16.8943 21.1226C15.8479 19.3147 15.0576 17.3161 15.0576 17.3161C15.0576 17.3161 14.9054 16.9426 14.6336 16.7427C14.3039 16.5005 13.8432 16.4238 13.8432 16.4238L8.95382 16.4557C8.95382 16.4557 8.21996 16.4762 7.95033 16.7953C7.71043 17.0795 7.93116 17.6664 7.93116 17.6664C7.93116 17.6664 11.7588 26.6218 16.0932 31.1349C20.0679 35.2732 24.5806 35.0016 24.5806 35.0016Z" fill="white"/>
</g>
<defs>
<clipPath id="clip0">
<rect width="50" height="50" fill="white"/>
</clipPath>
</defs>
</svg>
